<svg xmlns="http://www.w3.org/2000/svg" width="108" height="108" viewBox="0 0 108 108" fill="none">
        <circle cx="54" cy="54" r="54" fill="#D9D9D9" />
        <circle cx="54" cy="54" r="50" fill="white" />
        <path
                d="M61.5 55.25H55.25V61.5C55.25 62.1875 54.6875 62.75 54 62.75C53.3125 62.75 52.75 62.1875 52.75 61.5V55.25H46.5C45.8125 55.25 45.25 54.6875 45.25 54C45.25 53.3125 45.8125 52.75 46.5 52.75H52.75V46.5C52.75 45.8125 53.3125 45.25 54 45.25C54.6875 45.25 55.25 45.8125 55.25 46.5V52.75H61.5C62.1875 52.75 62.75 53.3125 62.75 54C62.75 54.6875 62.1875 55.25 61.5 55.25Z"
                fill="#898989" />
</svg>