<svg width="35" height="35" viewBox="0 0 35 35" fill="none" xmlns="http://www.w3.org/2000/svg">
<circle cx="17.5" cy="17.5" r="17.5" fill="#005DFF" fill-opacity="0.12"/>
<path d="M23.4998 18.6667V19.5001C23.4998 21.0917 22.6082 22.4751 21.2915 23.1751L21.8332 25.3334H20.1665L19.7498 23.6667H12.2498L11.8332 25.3334H10.1665L10.7082 23.1751C10.0408 22.8211 9.48259 22.2919 9.0935 21.6443C8.7044 20.9968 8.49916 20.2555 8.49984 19.5001V18.6667H7.6665V17.0001H22.6665V11.1667C22.6665 10.9457 22.5787 10.7338 22.4224 10.5775C22.2661 10.4212 22.0542 10.3334 21.8332 10.3334C21.4165 10.3334 21.0998 10.6167 20.9998 10.9917C21.5248 11.4417 21.8332 12.1084 21.8332 12.8334H16.8332C16.8332 12.1704 17.0966 11.5345 17.5654 11.0656C18.0342 10.5968 18.6701 10.3334 19.3332 10.3334H19.4748C19.8165 9.36675 20.7415 8.66675 21.8332 8.66675C22.4962 8.66675 23.1321 8.93014 23.6009 9.39898C24.0698 9.86782 24.3332 10.5037 24.3332 11.1667V18.6667H23.4998ZM21.8332 18.6667H10.1665V19.5001C10.1665 20.1631 10.4299 20.799 10.8987 21.2678C11.3676 21.7367 12.0035 22.0001 12.6665 22.0001H19.3332C19.9962 22.0001 20.6321 21.7367 21.1009 21.2678C21.5698 20.799 21.8332 20.1631 21.8332 19.5001V18.6667Z" fill="#005DFF" fill-opacity="0.69"/>
</svg>
