<svg xmlns="http://www.w3.org/2000/svg" width="18" height="18" viewBox="0 0 18 18" fill="none">
        <g clip-path="url(#clip0_4_49)">
                <path
                        d="M13.5 6C13.5 6.39782 13.342 6.77936 13.0607 7.06066C12.7794 7.34196 12.3978 7.5 12 7.5C11.6022 7.5 11.2206 7.34196 10.9393 7.06066C10.658 6.77936 10.5 6.39782 10.5 6C10.5 5.60218 10.658 5.22064 10.9393 4.93934C11.2206 4.65804 11.6022 4.5 12 4.5C12.3978 4.5 12.7794 4.65804 13.0607 4.93934C13.342 5.22064 13.5 5.60218 13.5 6Z"
                        fill="#777777" />
                <path fill-rule="evenodd" clip-rule="evenodd"
                        d="M8.95725 0.9375H9.04275C10.7745 0.9375 12.1313 0.9375 13.1903 1.08C14.2732 1.2255 15.1283 1.53 15.7995 2.2005C16.4707 2.87175 16.7745 3.72675 16.92 4.8105C17.0625 5.86875 17.0625 7.2255 17.0625 8.95725V9.02325C17.0625 10.455 17.0625 11.6265 16.9845 12.5805C16.9065 13.5405 16.7467 14.3408 16.3883 15.0068C16.2308 15.3 16.0358 15.5632 15.7995 15.7995C15.1283 16.4707 14.2733 16.7745 13.1895 16.92C12.1313 17.0625 10.7745 17.0625 9.04275 17.0625H8.95725C7.2255 17.0625 5.86875 17.0625 4.80975 16.92C3.72675 16.7745 2.87175 16.47 2.2005 15.7995C1.60575 15.2048 1.29825 14.4645 1.1355 13.545C0.97425 12.6427 0.945 11.52 0.939 10.1265C0.9375 9.77175 0.9375 9.39675 0.9375 9.00075V8.95725C0.9375 7.2255 0.9375 5.86875 1.08 4.80975C1.2255 3.72675 1.53 2.87175 2.2005 2.2005C2.87175 1.52925 3.72675 1.2255 4.8105 1.08C5.86875 0.9375 7.2255 0.9375 8.95725 0.9375ZM4.95975 2.1945C4.00125 2.3235 3.423 2.5695 2.99625 2.99625C2.56875 3.42375 2.3235 4.00125 2.1945 4.9605C2.064 5.9355 2.0625 7.2165 2.0625 9C2.0625 9.39675 2.0625 9.7695 2.064 10.1213C2.07 11.5267 2.1015 12.5557 2.2425 13.3485C2.3805 14.1248 2.616 14.6235 2.99625 15.0037C3.42375 15.4312 4.00125 15.6765 4.9605 15.8055C5.9355 15.936 7.2165 15.9375 9 15.9375C10.7835 15.9375 12.0645 15.936 13.0395 15.8055C13.9987 15.6765 14.577 15.4305 15.0045 15.0037C15.162 14.8462 15.2903 14.6722 15.3975 14.4735C15.6465 14.0115 15.7897 13.3935 15.8632 12.4897C15.9367 11.586 15.9375 10.4595 15.9375 9C15.9375 7.2165 15.936 5.9355 15.8055 4.9605C15.6765 4.00125 15.4305 3.423 15.0037 2.9955C14.5762 2.56875 13.9987 2.3235 13.0395 2.1945C12.0645 2.064 10.7835 2.0625 9 2.0625C7.2165 2.0625 5.93475 2.064 4.95975 2.1945Z" />
                <path opacity="0.4"
                        d="M15.4552 14.3595L13.3328 12.4493C12.9542 12.1085 12.4712 11.9062 11.9628 11.8755C11.4543 11.8449 10.9505 11.9877 10.5338 12.2805L10.3095 12.438C10.0206 12.641 9.66941 12.7356 9.31766 12.7052C8.96591 12.6747 8.63618 12.5211 8.3865 12.2715L5.169 9.05401C4.85952 8.74481 4.44412 8.56474 4.00689 8.55026C3.56966 8.53578 3.14326 8.68797 2.814 8.97601L2.0625 9.63301L2.064 10.1205C2.07 11.5268 2.1015 12.5558 2.2425 13.3485C2.38125 14.1248 2.616 14.6235 2.99625 15.0038C3.42375 15.4313 4.00125 15.6765 4.9605 15.8055C5.9355 15.936 7.2165 15.9375 9 15.9375C10.7835 15.9375 12.0652 15.936 13.0402 15.8055C13.9987 15.6765 14.577 15.4305 15.0037 15.0038C15.191 14.8172 15.3438 14.5991 15.4552 14.3595Z"
                        fill="#777777" />
        </g>
        <defs>
                <clipPath id="clip0_4_49">
                        <rect width="18" height="18" fill="white" />
                </clipPath>
        </defs>
</svg>