<svg width="35" height="35" viewBox="0 0 35 35" fill="none" xmlns="http://www.w3.org/2000/svg">
<circle cx="17.5" cy="17.5" r="17.5" fill="#005DFF" fill-opacity="0.12"/>
<path d="M22.8335 9.66675H14.5001C13.581 9.66675 12.8335 10.4142 12.8335 11.3334V15.9884L8.91098 19.9109C8.79447 20.0275 8.71513 20.1759 8.683 20.3376C8.65086 20.4992 8.66736 20.6667 8.73042 20.819C8.79347 20.9712 8.90026 21.1013 9.03727 21.1929C9.17427 21.2845 9.33536 21.3334 9.50015 21.3334V25.5001C9.50015 25.7211 9.58795 25.9331 9.74423 26.0893C9.90051 26.2456 10.1125 26.3334 10.3335 26.3334H23.6668C23.8878 26.3334 24.0998 26.2456 24.2561 26.0893C24.4124 25.9331 24.5001 25.7211 24.5001 25.5001V11.3334C24.5001 10.4142 23.7526 9.66675 22.8335 9.66675ZM16.1668 24.6667H11.1668V20.0117L13.6668 17.5117L16.1668 20.0117V24.6667ZM22.8335 24.6667H17.8335V21.3334C17.9985 21.3338 18.1598 21.2851 18.2971 21.1936C18.4343 21.1021 18.5413 20.9719 18.6045 20.8195C18.6676 20.6671 18.684 20.4993 18.6516 20.3376C18.6193 20.1758 18.5396 20.0273 18.4226 19.9109L14.5001 15.9884V11.3334H22.8335V24.6667Z" fill="#005DFF" fill-opacity="0.69"/>
<path d="M16.1668 13H17.8335V14.6667H16.1668V13ZM19.5002 13H21.1668V14.6667H19.5002V13ZM19.5002 16.3592H21.1668V18H19.5002V16.3592ZM19.5002 19.6667H21.1668V21.3333H19.5002V19.6667ZM12.8335 20.5H14.5002V22.1667H12.8335V20.5Z" fill="#005DFF" fill-opacity="0.69"/>
</svg>
