<svg xmlns="http://www.w3.org/2000/svg" width="18" height="18" viewBox="0 0 18 18" fill="none" >
        <path
                d="M3.75 14.25C3.5375 14.25 3.35925 14.178 3.21525 14.034C3.07175 13.8905 3 13.7125 3 13.5C3 13.2875 3.07175 13.1095 3.21525 12.966C3.35925 12.822 3.5375 12.75 3.75 12.75H4.5V7.5C4.5 6.4625 4.8125 5.5405 5.4375 4.734C6.0625 3.928 6.875 3.4 7.875 3.15V2.625C7.875 2.3125 7.9845 2.047 8.2035 1.8285C8.422 1.6095 8.6875 1.5 9 1.5C9.3125 1.5 9.578 1.6095 9.7965 1.8285C10.0155 2.047 10.125 2.3125 10.125 2.625V3.15C11.125 3.4 11.9375 3.928 12.5625 4.734C13.1875 5.5405 13.5 6.4625 13.5 7.5V12.75H14.25C14.4625 12.75 14.6405 12.822 14.784 12.966C14.928 13.1095 15 13.2875 15 13.5C15 13.7125 14.928 13.8905 14.784 14.034C14.6405 14.178 14.4625 14.25 14.25 14.25H3.75ZM9 16.5C8.5875 16.5 8.2345 16.3532 7.941 16.0597C7.647 15.7657 7.5 15.4125 7.5 15H10.5C10.5 15.4125 10.3532 15.7657 10.0597 16.0597C9.76575 16.3532 9.4125 16.5 9 16.5Z"  fill="#898989"/>
</svg>