<svg width="35" height="35" viewBox="0 0 35 35" fill="none" xmlns="http://www.w3.org/2000/svg">
<circle cx="17.5" cy="17.5" r="17.5" fill="#005DFF" fill-opacity="0.12"/>
<path d="M8.87484 24.2084C8.60331 24.2084 8.37587 24.1164 8.1925 23.9324C8.0085 23.7491 7.9165 23.5216 7.9165 23.2501V18.4584C7.9165 18.0272 8.00435 17.6358 8.18005 17.2845C8.35574 16.9331 8.58734 16.6216 8.87484 16.3501V13.6667C8.87484 12.8681 9.15435 12.1893 9.71338 11.6303C10.2724 11.0713 10.9512 10.7917 11.7498 10.7917H15.5832C15.9505 10.7917 16.2939 10.8598 16.6134 10.9959C16.9328 11.1313 17.2283 11.3188 17.4998 11.5584C17.7714 11.3188 18.0669 11.1313 18.3863 10.9959C18.7057 10.8598 19.0491 10.7917 19.4165 10.7917H23.2498C24.0484 10.7917 24.7273 11.0713 25.2863 11.6303C25.8453 12.1893 26.1248 12.8681 26.1248 13.6667V16.3501C26.4123 16.6216 26.6439 16.9331 26.8196 17.2845C26.9953 17.6358 27.0832 18.0272 27.0832 18.4584V23.2501C27.0832 23.5216 26.9912 23.7491 26.8072 23.9324C26.6238 24.1164 26.3964 24.2084 26.1248 24.2084C25.8533 24.2084 25.6259 24.1164 25.4425 23.9324C25.2585 23.7491 25.1665 23.5216 25.1665 23.2501V22.2917H9.83317V23.2501C9.83317 23.5216 9.74149 23.7491 9.55813 23.9324C9.37413 24.1164 9.14637 24.2084 8.87484 24.2084ZM18.4582 15.5834H24.2082V13.6667C24.2082 13.3952 24.1162 13.1675 23.9322 12.9835C23.7488 12.8001 23.5214 12.7084 23.2498 12.7084H19.4165C19.145 12.7084 18.9175 12.8001 18.7342 12.9835C18.5502 13.1675 18.4582 13.3952 18.4582 13.6667V15.5834ZM10.7915 15.5834H16.5415V13.6667C16.5415 13.3952 16.4498 13.1675 16.2665 12.9835C16.0825 12.8001 15.8547 12.7084 15.5832 12.7084H11.7498C11.4783 12.7084 11.2505 12.8001 11.0665 12.9835C10.8832 13.1675 10.7915 13.3952 10.7915 13.6667V15.5834ZM9.83317 20.3751H25.1665V18.4584C25.1665 18.1869 25.0745 17.9591 24.8905 17.7751C24.7071 17.5918 24.4797 17.5001 24.2082 17.5001H10.7915C10.52 17.5001 10.2922 17.5918 10.1082 17.7751C9.92485 17.9591 9.83317 18.1869 9.83317 18.4584V20.3751ZM25.1665 20.3751H9.83317H25.1665Z" fill="#005DFF" fill-opacity="0.69"/>
</svg>
