<svg width="31" height="31" viewBox="0 0 31 31" fill="none" xmlns="http://www.w3.org/2000/svg">
<path d="M28.0938 4.84375H2.90625C2.37041 4.84375 1.9375 5.27666 1.9375 5.8125V25.1875C1.9375 25.7233 2.37041 26.1562 2.90625 26.1562H28.0938C28.6296 26.1562 29.0625 25.7233 29.0625 25.1875V5.8125C29.0625 5.27666 28.6296 4.84375 28.0938 4.84375ZM26.8828 8.19805V23.9766H4.11719V8.19805L3.28164 7.54717L4.47139 6.01836L5.76709 7.02646H25.2359L26.5316 6.01836L27.7214 7.54717L26.8828 8.19805ZM25.2359 7.02344L15.5 14.5918L5.76406 7.02344L4.46836 6.01533L3.27861 7.54414L4.11416 8.19502L14.4556 16.2356C14.753 16.4667 15.1189 16.5921 15.4955 16.5921C15.8721 16.5921 16.2379 16.4667 16.5354 16.2356L26.8828 8.19805L27.7184 7.54717L26.5286 6.01836L25.2359 7.02344Z" fill="#005DFF"/>
</svg>
