<svg width="36" height="36" viewBox="0 0 36 36" fill="none" xmlns="http://www.w3.org/2000/svg">
<circle cx="18" cy="18" r="17.5" fill="#005DFF" fill-opacity="0.12"/>
<path d="M24.0003 19.1667V20C24.0003 21.5917 23.1087 22.975 21.792 23.675L22.3337 25.8334H20.667L20.2503 24.1667H12.7503L12.3337 25.8334H10.667L11.2087 23.675C10.5413 23.321 9.98308 22.7918 9.59399 22.1443C9.20489 21.4968 8.99965 20.7554 9.00033 20V19.1667H8.16699V17.5H23.167V11.6667C23.167 11.4457 23.0792 11.2337 22.9229 11.0774C22.7666 10.9212 22.5547 10.8334 22.3337 10.8334C21.917 10.8334 21.6003 11.1167 21.5003 11.4917C22.0253 11.9417 22.3337 12.6084 22.3337 13.3334H17.3337C17.3337 12.6703 17.5971 12.0344 18.0659 11.5656C18.5347 11.0967 19.1706 10.8334 19.8337 10.8334H19.9753C20.317 9.86669 21.242 9.16669 22.3337 9.16669C22.9967 9.16669 23.6326 9.43008 24.1014 9.89892C24.5703 10.3678 24.8337 11.0036 24.8337 11.6667V19.1667H24.0003ZM22.3337 19.1667H10.667V20C10.667 20.6631 10.9304 21.2989 11.3992 21.7678C11.8681 22.2366 12.504 22.5 13.167 22.5H19.8337C20.4967 22.5 21.1326 22.2366 21.6014 21.7678C22.0703 21.2989 22.3337 20.6631 22.3337 20V19.1667Z" fill="#005DFF" fill-opacity="0.69"/>
</svg>
