<svg width="36" height="36" viewBox="0 0 36 36" fill="none" xmlns="http://www.w3.org/2000/svg">
<circle cx="18" cy="18" r="17.5" fill="#005DFF" fill-opacity="0.12"/>
<path d="M9.37533 24.7084C9.1038 24.7084 8.87635 24.6164 8.69299 24.4324C8.50899 24.249 8.41699 24.0215 8.41699 23.75V18.9584C8.41699 18.5271 8.50484 18.1358 8.68053 17.7844C8.85623 17.433 9.08783 17.1215 9.37533 16.85V14.1667C9.37533 13.3681 9.65484 12.6893 10.2139 12.1302C10.7729 11.5712 11.4517 11.2917 12.2503 11.2917H16.0837C16.451 11.2917 16.7944 11.3597 17.1139 11.4958C17.4333 11.6313 17.7288 11.8188 18.0003 12.0584C18.2719 11.8188 18.5673 11.6313 18.8868 11.4958C19.2062 11.3597 19.5496 11.2917 19.917 11.2917H23.7503C24.5489 11.2917 25.2278 11.5712 25.7868 12.1302C26.3458 12.6893 26.6253 13.3681 26.6253 14.1667V16.85C26.9128 17.1215 27.1444 17.433 27.3201 17.7844C27.4958 18.1358 27.5837 18.5271 27.5837 18.9584V23.75C27.5837 24.0215 27.4917 24.249 27.3077 24.4324C27.1243 24.6164 26.8969 24.7084 26.6253 24.7084C26.3538 24.7084 26.1264 24.6164 25.943 24.4324C25.759 24.249 25.667 24.0215 25.667 23.75V22.7917H10.3337V23.75C10.3337 24.0215 10.242 24.249 10.0586 24.4324C9.87462 24.6164 9.64685 24.7084 9.37533 24.7084ZM18.9587 16.0834H24.7087V14.1667C24.7087 13.8952 24.6167 13.6674 24.4327 13.4834C24.2493 13.3 24.0219 13.2084 23.7503 13.2084H19.917C19.6455 13.2084 19.418 13.3 19.2347 13.4834C19.0507 13.6674 18.9587 13.8952 18.9587 14.1667V16.0834ZM11.292 16.0834H17.042V14.1667C17.042 13.8952 16.9503 13.6674 16.767 13.4834C16.583 13.3 16.3552 13.2084 16.0837 13.2084H12.2503C11.9788 13.2084 11.751 13.3 11.567 13.4834C11.3837 13.6674 11.292 13.8952 11.292 14.1667V16.0834ZM10.3337 20.875H25.667V18.9584C25.667 18.6868 25.575 18.4591 25.391 18.2751C25.2076 18.0917 24.9802 18 24.7087 18H11.292C11.0205 18 10.7927 18.0917 10.6087 18.2751C10.4253 18.4591 10.3337 18.6868 10.3337 18.9584V20.875ZM25.667 20.875H10.3337H25.667Z" fill="#005DFF" fill-opacity="0.69"/>
</svg>
