<svg width="36" height="36" viewBox="0 0 36 36" fill="none" xmlns="http://www.w3.org/2000/svg">
<circle cx="18" cy="18" r="17.5" fill="#005DFF" fill-opacity="0.12"/>
<path d="M9.37533 24.7083C9.1038 24.7083 8.87635 24.6163 8.69299 24.4323C8.50899 24.2489 8.41699 24.0215 8.41699 23.75V18.9583C8.41699 18.527 8.50484 18.1357 8.68053 17.7843C8.85623 17.4329 9.08783 17.1215 9.37533 16.85V14.1666C9.37533 13.368 9.65484 12.6892 10.2139 12.1302C10.7729 11.5711 11.4517 11.2916 12.2503 11.2916H16.0837C16.451 11.2916 16.7944 11.3597 17.1139 11.4958C17.4333 11.6312 17.7288 11.8187 18.0003 12.0583C18.2719 11.8187 18.5673 11.6312 18.8868 11.4958C19.2062 11.3597 19.5496 11.2916 19.917 11.2916H23.7503C24.5489 11.2916 25.2278 11.5711 25.7868 12.1302C26.3458 12.6892 26.6253 13.368 26.6253 14.1666V16.85C26.9128 17.1215 27.1444 17.4329 27.3201 17.7843C27.4958 18.1357 27.5837 18.527 27.5837 18.9583V23.75C27.5837 24.0215 27.4917 24.2489 27.3077 24.4323C27.1243 24.6163 26.8969 24.7083 26.6253 24.7083C26.3538 24.7083 26.1264 24.6163 25.943 24.4323C25.759 24.2489 25.667 24.0215 25.667 23.75V22.7916H10.3337V23.75C10.3337 24.0215 10.242 24.2489 10.0586 24.4323C9.87462 24.6163 9.64685 24.7083 9.37533 24.7083ZM18.9587 16.0833H24.7087V14.1666C24.7087 13.8951 24.6167 13.6673 24.4327 13.4833C24.2493 13.3 24.0219 13.2083 23.7503 13.2083H19.917C19.6455 13.2083 19.418 13.3 19.2347 13.4833C19.0507 13.6673 18.9587 13.8951 18.9587 14.1666V16.0833ZM11.292 16.0833H17.042V14.1666C17.042 13.8951 16.9503 13.6673 16.767 13.4833C16.583 13.3 16.3552 13.2083 16.0837 13.2083H12.2503C11.9788 13.2083 11.751 13.3 11.567 13.4833C11.3837 13.6673 11.292 13.8951 11.292 14.1666V16.0833ZM10.3337 20.875H25.667V18.9583C25.667 18.6868 25.575 18.459 25.391 18.275C25.2076 18.0916 24.9802 18 24.7087 18H11.292C11.0205 18 10.7927 18.0916 10.6087 18.275C10.4253 18.459 10.3337 18.6868 10.3337 18.9583V20.875ZM25.667 20.875H10.3337H25.667Z" fill="#005DFF" fill-opacity="0.69"/>
</svg>
