<svg width="35" height="36" viewBox="0 0 35 36" fill="none" xmlns="http://www.w3.org/2000/svg">
<circle cx="17.5" cy="18" r="17.5" fill="#005DFF" fill-opacity="0.12"/>
<path d="M22.8335 10.1667H14.5001C13.581 10.1667 12.8335 10.9142 12.8335 11.8334V16.4884L8.91098 20.4109C8.79447 20.5274 8.71513 20.6759 8.683 20.8375C8.65086 20.9991 8.66736 21.1666 8.73042 21.3189C8.79347 21.4711 8.90026 21.6013 9.03727 21.6929C9.17427 21.7844 9.33536 21.8333 9.50015 21.8334V26C9.50015 26.221 9.58795 26.433 9.74423 26.5893C9.90051 26.7456 10.1125 26.8334 10.3335 26.8334H23.6668C23.8878 26.8334 24.0998 26.7456 24.2561 26.5893C24.4124 26.433 24.5001 26.221 24.5001 26V11.8334C24.5001 10.9142 23.7526 10.1667 22.8335 10.1667ZM16.1668 25.1667H11.1668V20.5117L13.6668 18.0117L16.1668 20.5117V25.1667ZM22.8335 25.1667H17.8335V21.8334C17.9985 21.8337 18.1598 21.7851 18.2971 21.6936C18.4343 21.6021 18.5413 21.4718 18.6045 21.3194C18.6676 21.167 18.684 20.9993 18.6516 20.8375C18.6193 20.6757 18.5396 20.5272 18.4226 20.4109L14.5001 16.4884V11.8334H22.8335V25.1667Z" fill="#005DFF" fill-opacity="0.69"/>
<path d="M16.1663 13.5H17.833V15.1667H16.1663V13.5ZM19.4997 13.5H21.1663V15.1667H19.4997V13.5ZM19.4997 16.8592H21.1663V18.5H19.4997V16.8592ZM19.4997 20.1667H21.1663V21.8333H19.4997V20.1667ZM12.833 21H14.4997V22.6667H12.833V21Z" fill="#005DFF" fill-opacity="0.69"/>
</svg>
