<svg width="18" height="17" viewBox="0 0 18 17" fill="none" xmlns="http://www.w3.org/2000/svg">
<path d="M9 1.59375C5.192 1.59375 2.09375 4.692 2.09375 8.5C2.09375 12.308 5.192 15.4062 9 15.4062C12.808 15.4062 15.9062 12.308 15.9062 8.5C15.9062 4.692 12.808 1.59375 9 1.59375ZM9 2.65625C12.2337 2.65625 14.8438 5.26628 14.8438 8.5C14.8438 11.7337 12.2337 14.3438 9 14.3438C5.76628 14.3438 3.15625 11.7337 3.15625 8.5C3.15625 5.26628 5.76628 2.65625 9 2.65625ZM8.95006 5.3125C7.18419 5.3125 5.76256 6.73413 5.76256 8.5C5.76256 10.2659 7.18419 11.6875 8.95006 11.6875C10.2251 11.6875 11.3141 10.9225 11.822 9.84406L10.8594 9.39622C10.5167 10.1246 9.80006 10.625 8.95006 10.625C7.74094 10.625 6.82506 9.70912 6.82506 8.5C6.82506 7.29087 7.74094 6.375 8.95006 6.375C9.80006 6.375 10.5173 6.87544 10.8594 7.60378L11.8225 7.15541C11.3147 6.07697 10.2251 5.31197 8.95006 5.31197V5.3125Z" fill="#005DFF" fill-opacity="0.69"/>
</svg>
