<svg width="35" height="35" viewBox="0 0 35 35" fill="none" xmlns="http://www.w3.org/2000/svg">
<circle cx="17.5" cy="17.5" r="17.5" fill="#0000DA" fill-opacity="0.1"/>
<path d="M17.6017 13.8978C15.445 13.8978 13.7055 15.7293 13.7055 18C13.7055 20.2707 15.445 22.1022 17.6017 22.1022C19.7583 22.1022 21.4979 20.2707 21.4979 18C21.4979 15.7293 19.7583 13.8978 17.6017 13.8978ZM17.6017 20.667C16.208 20.667 15.0686 19.4709 15.0686 18C15.0686 16.5291 16.2046 15.333 17.6017 15.333C18.9988 15.333 20.1347 16.5291 20.1347 18C20.1347 19.4709 18.9954 20.667 17.6017 20.667ZM22.5661 13.73C22.5661 14.262 22.1592 14.6868 21.6573 14.6868C21.152 14.6868 20.7485 14.2584 20.7485 13.73C20.7485 13.2016 21.1554 12.7732 21.6573 12.7732C22.1592 12.7732 22.5661 13.2016 22.5661 13.73ZM25.1466 14.7011C25.0889 13.4194 24.8109 12.2841 23.9191 11.3487C23.0306 10.4133 21.9523 10.1205 20.7349 10.0562C19.4803 9.98126 15.7197 9.98126 14.4651 10.0562C13.2511 10.1169 12.1728 10.4097 11.2809 11.3451C10.3891 12.2805 10.1144 13.4158 10.0534 14.6975C9.9822 16.0185 9.9822 19.9779 10.0534 21.2989C10.1111 22.5806 10.3891 23.7159 11.2809 24.6513C12.1728 25.5867 13.2477 25.8795 14.4651 25.9438C15.7197 26.0187 19.4803 26.0187 20.7349 25.9438C21.9523 25.8831 23.0306 25.5903 23.9191 24.6513C24.8075 23.7159 25.0856 22.5806 25.1466 21.2989C25.2178 19.9779 25.2178 16.0221 25.1466 14.7011ZM23.5257 22.7163C23.2612 23.416 22.7492 23.9551 22.0812 24.2372C21.0808 24.6549 18.7071 24.5585 17.6017 24.5585C16.4962 24.5585 14.1192 24.6513 13.1222 24.2372C12.4576 23.9587 11.9456 23.4196 11.6777 22.7163C11.2809 21.6631 11.3725 19.1639 11.3725 18C11.3725 16.8361 11.2843 14.3334 11.6777 13.2837C11.9422 12.584 12.4542 12.0449 13.1222 11.7628C14.1226 11.3451 16.4962 11.4415 17.6017 11.4415C18.7071 11.4415 21.0842 11.3487 22.0812 11.7628C22.7458 12.0413 23.2578 12.5804 23.5257 13.2837C23.9225 14.3369 23.8309 16.8361 23.8309 18C23.8309 19.1639 23.9225 21.6666 23.5257 22.7163Z" fill="#005DFF" fill-opacity="0.69"/>
</svg>
