<svg width="25" height="27" viewBox="0 0 25 27" fill="none" xmlns="http://www.w3.org/2000/svg">
<path d="M20.45 23.625C18.3 23.625 16.2043 23.0858 14.163 22.0072C12.121 20.9295 10.3127 19.5045 8.738 17.7323C7.16267 15.9608 5.896 13.9264 4.938 11.6291C3.97933 9.33262 3.5 6.975 3.5 4.55625C3.5 4.21875 3.6 3.9375 3.8 3.7125C4 3.4875 4.25 3.375 4.55 3.375H8.6C8.83333 3.375 9.04167 3.45937 9.225 3.62812C9.40833 3.79687 9.51667 4.0125 9.55 4.275L10.2 8.2125C10.2333 8.475 10.2293 8.71387 10.188 8.92912C10.146 9.14512 10.05 9.3375 9.9 9.50625L7.5 12.2625C8.2 13.6125 9.075 14.8781 10.125 16.0594C11.175 17.2406 12.3333 18.2625 13.6 19.125L15.95 16.4812C16.1 16.3125 16.296 16.1858 16.538 16.101C16.7793 16.017 17.0167 15.9937 17.25 16.0312L20.7 16.8187C20.9333 16.875 21.125 17.0014 21.275 17.1979C21.425 17.3951 21.5 17.625 21.5 17.8875V22.4438C21.5 22.7812 21.4 23.0625 21.2 23.2875C21 23.5125 20.75 23.625 20.45 23.625Z" fill="#005DFF"/>
</svg>
