<svg width="28" height="27" viewBox="0 0 28 27" fill="none" xmlns="http://www.w3.org/2000/svg">
<path d="M14 13.5C14.6187 13.5 15.1486 13.2795 15.5896 12.8385C16.0299 12.3983 16.25 11.8688 16.25 11.25C16.25 10.6313 16.0299 10.1014 15.5896 9.66038C15.1486 9.22013 14.6187 9 14 9C13.3812 9 12.8517 9.22013 12.4115 9.66038C11.9705 10.1014 11.75 10.6313 11.75 11.25C11.75 11.8688 11.9705 12.3983 12.4115 12.8385C12.8517 13.2795 13.3812 13.5 14 13.5ZM14 24.75C10.9812 22.1813 8.72675 19.7951 7.2365 17.5916C5.7455 15.3889 5 13.35 5 11.475C5 8.6625 5.90488 6.42188 7.71462 4.75313C9.52362 3.08437 11.6187 2.25 14 2.25C16.3812 2.25 18.4764 3.08437 20.2854 4.75313C22.0951 6.42188 23 8.6625 23 11.475C23 13.35 22.2549 15.3889 20.7646 17.5916C19.2736 19.7951 17.0187 22.1813 14 24.75Z" fill="#005DFF"/>
</svg>
