<svg width="20" height="20" viewBox="0 0 20 20" fill="none" xmlns="http://www.w3.org/2000/svg">
<path d="M4.16732 15.8332C3.93121 15.8332 3.73315 15.7532 3.57315 15.5932C3.41371 15.4337 3.33398 15.2359 3.33398 14.9998C3.33398 14.7637 3.41371 14.5659 3.57315 14.4065C3.73315 14.2465 3.93121 14.1665 4.16732 14.1665H5.00065V8.33317C5.00065 7.18039 5.34787 6.15595 6.04232 5.25984C6.73676 4.36428 7.63954 3.77761 8.75065 3.49984V2.9165C8.75065 2.56928 8.87232 2.27428 9.11565 2.0315C9.35843 1.78817 9.65343 1.6665 10.0007 1.6665C10.3479 1.6665 10.6429 1.78817 10.8857 2.0315C11.129 2.27428 11.2507 2.56928 11.2507 2.9165V3.49984C12.3618 3.77761 13.2645 4.36428 13.959 5.25984C14.6534 6.15595 15.0007 7.18039 15.0007 8.33317V14.1665H15.834C16.0701 14.1665 16.2679 14.2465 16.4273 14.4065C16.5873 14.5659 16.6673 14.7637 16.6673 14.9998C16.6673 15.2359 16.5873 15.4337 16.4273 15.5932C16.2679 15.7532 16.0701 15.8332 15.834 15.8332H4.16732ZM10.0007 18.3332C9.54232 18.3332 9.15009 18.1701 8.82398 17.844C8.49732 17.5173 8.33398 17.1248 8.33398 16.6665H11.6673C11.6673 17.1248 11.5043 17.5173 11.1782 17.844C10.8515 18.1701 10.459 18.3332 10.0007 18.3332Z" fill="#898989"/>
</svg>
