<svg width="20" height="20" viewBox="0 0 20 20" fill="none" xmlns="http://www.w3.org/2000/svg">
<path d="M14.9993 12.5H13.3327V14.1667H14.9993M14.9993 9.16667H13.3327V10.8333H14.9993M16.666 15.8333H9.99935V14.1667H11.666V12.5H9.99935V10.8333H11.666V9.16667H9.99935V7.5H16.666M8.33268 5.83333H6.66601V4.16667H8.33268M8.33268 9.16667H6.66601V7.5H8.33268M8.33268 12.5H6.66601V10.8333H8.33268M8.33268 15.8333H6.66601V14.1667H8.33268M4.99935 5.83333H3.33268V4.16667H4.99935M4.99935 9.16667H3.33268V7.5H4.99935M4.99935 12.5H3.33268V10.8333H4.99935M4.99935 15.8333H3.33268V14.1667H4.99935M9.99935 5.83333V2.5H1.66602V17.5H18.3327V5.83333H9.99935Z" fill="#898989"/>
</svg>
