<svg width="531" height="266" viewBox="0 0 531 266" fill="none" xmlns="http://www.w3.org/2000/svg">
<g clip-path="url(#clip0_956_77)">
<path d="M175.039 266C159.046 266 143.078 265.713 127.133 265.14C104.351 264.321 80.7922 263.474 58.8954 251.315C43.5776 242.81 30.0114 229.165 19.6637 211.853C12.7474 200.12 7.67611 187.39 4.62789 174.112C-1.0582 149.937 -0.864523 124.749 5.19263 100.664C7.31529 92.4066 10.2415 84.3774 13.9293 76.6916C29.8978 43.585 59.023 21.3615 93.8374 15.7198C94.1249 15.6825 94.4156 15.6762 94.7045 15.7013C94.8611 15.7097 95.0171 15.7187 95.1762 15.712L95.3811 15.6468C95.9062 15.4641 96.4455 15.3255 96.9936 15.2325C150.687 7.22973 207.448 23.4221 261.137 62.0579C302.649 91.9351 357.664 108.023 429.327 111.242L430.344 111.296C450.294 112.443 469.59 120.677 486.151 135.11C502.497 149.354 514.77 168.359 521.643 190.07C522.488 192.717 523.262 195.473 523.945 198.26C524.58 200.849 524.535 203.56 523.815 206.127C523.094 208.694 521.721 211.031 519.831 212.91V212.915L519.653 213.099C519.223 213.527 518.771 213.937 518.309 214.319L517.765 214.767C513.186 218.544 509.569 221.528 505.239 223.845C502.352 225.38 499.281 226.541 496.101 227.3C478.638 231.562 460.903 235.514 443.391 239.047C409.38 245.912 374.474 251.576 339.64 255.88C285.032 262.621 230.061 266.001 175.039 266ZM94.2973 16.8738C94.1904 16.8728 94.0835 16.8801 93.9776 16.8956C59.4888 22.4845 30.6392 44.4899 14.8291 77.2687C11.1777 84.8783 8.28042 92.828 6.17887 101.004C0.176903 124.875 -0.0143634 149.839 5.62115 173.8C8.63953 186.951 13.6616 199.558 20.5111 211.18C30.7576 228.322 44.1851 241.83 59.3422 250.245C81.0425 262.295 104.49 263.139 127.166 263.953C198.087 266.49 269.098 263.396 339.531 254.7C374.341 250.398 409.225 244.739 443.213 237.877C460.714 234.348 478.436 230.399 495.888 226.138C498.991 225.399 501.988 224.267 504.806 222.769C509.048 220.498 512.63 217.543 517.166 213.802L517.71 213.354C518.107 213.026 518.497 212.674 518.87 212.309L518.977 212.197C522.705 208.436 524.154 203.473 522.954 198.582V198.582C522.279 195.825 521.512 193.099 520.676 190.479C506.635 146.126 470.314 114.782 430.295 112.481L429.283 112.428C396.549 110.957 367.903 106.884 341.714 99.9729C310.451 91.7235 283.157 79.3055 260.591 63.0645C207.107 24.5767 150.583 8.44458 97.1248 16.4094C96.6254 16.4956 96.134 16.6232 95.6557 16.7907L95.2865 16.8941C95.0768 16.9035 94.8667 16.901 94.6572 16.8866C94.5338 16.8802 94.4142 16.8738 94.2973 16.8738H94.2973Z" fill="#F0F0F0"/>
<path d="M166.05 86.6659C164.57 85.2438 163.055 77.3134 161.165 76.5083C162.578 79.6346 161.552 80.4623 161.545 83.8933C161.563 85.8415 161.335 87.7842 160.868 89.6756H128.85V64.6577C128.85 62.4098 129.292 60.1839 130.151 58.1071C131.01 56.0303 132.269 54.1432 133.857 52.5537C135.445 50.9642 137.33 49.7033 139.404 48.8431C141.478 47.9829 143.702 47.5402 145.947 47.5403C146.804 47.557 147.655 47.6818 148.481 47.9117C151.233 48.6556 153.742 50.111 155.754 52.1319C157.767 54.1528 159.214 56.6681 159.95 59.4255C162.391 68.358 166.273 83.2267 166.05 86.6659Z" fill="#2F2E41"/>
<path d="M130.729 117.443L130.745 97.9426L119.296 98.9669L123.336 111.266L121.445 142.178C120.528 142.384 119.691 142.853 119.035 143.527C118.379 144.202 117.934 145.053 117.753 145.976C117.572 146.9 117.663 147.856 118.015 148.728C118.368 149.601 118.966 150.352 119.737 150.89C120.509 151.427 121.42 151.729 122.359 151.758C123.299 151.786 124.226 151.54 125.029 151.05C125.831 150.56 126.474 149.847 126.878 148.997C127.283 148.148 127.432 147.199 127.307 146.266L130.729 117.443Z" fill="#FFB6B6"/>
<path d="M153.259 256.789L157.884 256.789L160.085 238.927H153.258L153.259 256.789Z" fill="#FFB6B6"/>
<path d="M151.693 254.505L159.005 254.068V257.204L165.957 262.011C166.3 262.248 166.559 262.589 166.695 262.984C166.831 263.379 166.837 263.807 166.713 264.206C166.589 264.605 166.341 264.954 166.005 265.201C165.669 265.449 165.262 265.582 164.845 265.582H156.14L154.64 262.48L154.054 265.582H150.771L151.693 254.505Z" fill="#2F2E41"/>
<path d="M126.514 256.789L131.14 256.789L133.34 238.927H126.514L126.514 256.789Z" fill="#FFB6B6"/>
<path d="M124.949 254.505L132.261 254.068V257.204L139.213 262.011C139.556 262.248 139.815 262.589 139.951 262.984C140.087 263.379 140.093 263.807 139.969 264.206C139.845 264.605 139.597 264.954 139.261 265.201C138.925 265.449 138.518 265.582 138.101 265.582H129.396L127.895 262.48L127.31 265.582H124.027L124.949 254.505Z" fill="#2F2E41"/>
<path d="M149.141 76.8845L139.559 77.0726L132.795 84.2206L127.373 85.0168C124.92 85.377 122.665 86.5692 120.984 88.3942C119.304 90.2191 118.3 92.5662 118.141 95.0432L119.08 100.209H124.716L127.977 119.377C126.709 122.612 126.623 125.165 129.226 126.168L137.305 141.404L161.166 130.682C162.376 128.599 162.763 126.507 161.527 124.473L163.232 95.1306H168.968C168.968 89.6426 167.114 85.0161 161.666 84.4054C159.503 84.171 157.329 84.0465 155.153 84.0325L149.141 76.8845Z" fill="#E6E6E6"/>
<path d="M161.166 130.682C161.166 130.682 137.869 134.821 129.226 126.168C129.226 126.168 128.349 127.659 127.026 130.132C126.646 130.844 125.912 131.325 125.468 132.187C125.065 132.97 124.029 133.933 123.589 134.821C123.236 135.535 123.803 136.469 123.435 137.241C119.009 146.535 113.838 159.646 114.947 168.303C115.662 173.886 117.138 186.877 118.694 200.83C118.815 201.92 117.831 203.32 117.953 204.419C118.068 205.455 119.29 206.189 119.405 207.228C119.481 207.918 118.628 208.621 118.705 209.31C118.788 210.065 119.801 210.806 119.884 211.559C122.015 230.825 123.965 248.812 123.965 248.812H134.862L136.919 207.731L135.238 192.757L139.184 162.472L144.632 191.252L145.333 207.449L151.091 249.564H161.166V208.794L161.917 206.676L161.166 203.96L161.917 201.033L161.166 197.846V130.682Z" fill="#2F2E41"/>
<path d="M152.082 71.3213C150.597 73.2953 148.486 74.7044 146.095 75.3165C143.704 75.9285 141.176 75.7071 138.927 74.6886C136.679 73.6702 134.844 71.9154 133.724 69.7133C132.605 67.5112 132.268 64.993 132.769 62.5736C133.27 60.1542 134.579 57.9778 136.481 56.4027C138.382 54.8276 140.763 53.9479 143.231 53.9084C145.698 53.8688 148.106 54.6718 150.057 56.1852C152.008 57.6985 153.385 59.8319 153.964 62.2341C153.995 62.3644 154.021 62.494 154.047 62.6285C154.352 64.1342 154.335 65.6876 153.996 67.186C153.657 68.6845 153.005 70.094 152.082 71.3213Z" fill="#FFB6B6"/>
<path d="M149.818 65.1167C149.588 63.9589 149.005 62.901 148.15 62.0882C148.234 63.1977 148.08 64.3124 147.699 65.3574C144.842 65.6107 141.973 65.0416 139.428 63.7172C137.512 62.4155 135.073 62.5284 132.232 63.7172C132.232 62.3338 132.504 60.964 133.033 59.6859C133.562 58.4078 134.337 57.2465 135.314 56.2683C136.291 55.2901 137.451 54.5142 138.727 53.9848C140.004 53.4555 141.372 53.1832 142.754 53.1833H144.633C147.423 53.1839 150.099 54.2938 152.072 56.2692C154.045 58.2446 155.154 60.9236 155.154 63.7172C153.42 64.3399 151.634 64.8082 149.818 65.1167Z" fill="#2F2E41"/>
<path d="M67.6191 199.374C84.3127 199.374 97.8455 185.826 97.8455 169.112C97.8455 152.399 84.3127 138.85 67.6191 138.85C50.9254 138.85 37.3926 152.399 37.3926 169.112C37.3926 185.826 50.9254 199.374 67.6191 199.374Z" fill="#F0F0F0"/>
<path d="M260.24 60.5244C276.934 60.5244 290.467 46.9755 290.467 30.2622C290.467 13.5488 276.934 0 260.24 0C243.547 0 230.014 13.5488 230.014 30.2622C230.014 46.9755 243.547 60.5244 260.24 60.5244Z" fill="#F0F0F0"/>
<path d="M500.273 204.122C516.967 204.122 530.5 190.573 530.5 173.859C530.5 157.146 516.967 143.597 500.273 143.597C483.58 143.597 470.047 157.146 470.047 173.859C470.047 190.573 483.58 204.122 500.273 204.122Z" fill="#F0F0F0"/>
<path d="M314.765 33.5623V102.184C314.766 103.609 314.204 104.977 313.203 105.99C312.201 107.004 310.841 107.58 309.417 107.595C309.398 107.597 309.378 107.598 309.358 107.598H301.381C294.998 107.598 288.877 105.059 284.363 100.54C279.85 96.0216 277.314 89.893 277.314 83.5026V33.5623C277.314 32.1265 277.884 30.7495 278.898 29.7343C279.912 28.719 281.288 28.1487 282.722 28.1487H285.954C284.457 32.5222 304.781 34.3636 305.896 28.1487H309.358C310.792 28.1487 312.168 28.7191 313.182 29.7343C314.196 30.7496 314.765 32.1265 314.765 33.5623Z" fill="#005DFF"/>
<path d="M291.092 23.0176C291.092 22.8295 291.167 22.6492 291.3 22.5162C291.432 22.3831 291.613 22.3083 291.8 22.3081H296.619C296.807 22.3086 296.986 22.3836 297.119 22.5166C297.251 22.6496 297.326 22.8298 297.326 23.0176C297.326 23.2054 297.251 23.3855 297.119 23.5185C296.986 23.6515 296.807 23.7265 296.619 23.727H291.8C291.613 23.7268 291.432 23.652 291.3 23.519C291.167 23.386 291.092 23.2057 291.092 23.0176Z" fill="#3F3D56"/>
<path d="M311.014 116.302H280.541C278.177 116.299 275.91 115.358 274.238 113.684C272.566 112.01 271.626 109.741 271.623 107.374V59.4045C271.456 59.2842 271.32 59.1257 271.226 58.9421C271.132 58.7586 271.083 58.5552 271.083 58.349V53.5246C271.083 53.3184 271.132 53.1151 271.226 52.9316C271.32 52.7481 271.456 52.5897 271.623 52.4694V51.1746C271.456 51.0543 271.32 50.8959 271.226 50.7124C271.132 50.5289 271.083 50.3256 271.083 50.1194V45.2947C271.083 45.0885 271.132 44.8852 271.226 44.7017C271.32 44.5182 271.456 44.3597 271.623 44.2395V41.8993C271.417 41.7882 271.244 41.623 271.124 41.4213C271.004 41.2196 270.941 40.9891 270.941 40.7543V35.9299C270.941 35.6951 271.004 35.4645 271.124 35.2628C271.244 35.061 271.417 34.8957 271.623 34.7846V28.3722C271.626 26.0052 272.566 23.7359 274.238 22.0622C275.91 20.3884 278.177 19.447 280.541 19.4443H311.014C313.378 19.447 315.645 20.3885 317.316 22.0622C318.988 23.7359 319.929 26.0052 319.931 28.3722V42.3499C320.092 42.4504 320.224 42.5902 320.316 42.7561C320.408 42.922 320.456 43.1085 320.456 43.2981V52.4972C320.456 52.6869 320.408 52.8735 320.316 53.0394C320.224 53.2053 320.092 53.3452 319.931 53.4458V107.374C319.929 109.741 318.988 112.01 317.316 113.684C315.645 115.358 313.378 116.299 311.014 116.302ZM280.541 20.6311C278.491 20.6334 276.526 21.4497 275.076 22.9009C273.626 24.3522 272.811 26.3198 272.809 28.3722V35.7941L272.238 35.8161C272.209 35.8171 272.181 35.8295 272.16 35.8507C272.139 35.8719 272.127 35.9003 272.127 35.9299V40.7543C272.127 40.7839 272.139 40.8122 272.16 40.8334C272.181 40.8545 272.209 40.867 272.238 40.8681L272.809 40.8899V45.0727L272.358 45.184C272.333 45.19 272.31 45.2042 272.294 45.2242C272.278 45.2442 272.269 45.269 272.269 45.2947V50.1194C272.269 50.1451 272.278 50.1699 272.294 50.1899C272.31 50.2099 272.333 50.224 272.358 50.23L272.809 50.3413V53.3027L272.358 53.4139C272.333 53.4199 272.31 53.4341 272.294 53.4541C272.278 53.4741 272.269 53.4989 272.269 53.5246V58.349C272.269 58.3747 272.278 58.3996 272.294 58.4196C272.31 58.4397 272.333 58.4539 272.358 58.4599L272.809 58.5712V107.374C272.811 109.426 273.626 111.394 275.076 112.845C276.526 114.296 278.491 115.113 280.541 115.115H311.014C313.064 115.113 315.029 114.296 316.479 112.845C317.928 111.394 318.743 109.426 318.746 107.374V52.4297H319.271V43.366H318.746V28.3722C318.743 26.3198 317.928 24.3522 316.479 22.901C315.029 21.4497 313.064 20.6334 311.014 20.6311L280.541 20.6311Z" fill="#3F3D56"/>
<path d="M299.312 23.727C299.704 23.727 300.021 23.4094 300.021 23.0176C300.021 22.6257 299.704 22.3081 299.312 22.3081C298.921 22.3081 298.604 22.6257 298.604 23.0176C298.604 23.4094 298.921 23.727 299.312 23.727Z" fill="#3F3D56"/>
<path d="M145.161 160.451H65.8686C64.7425 160.448 63.6634 159.999 62.8672 159.202C62.0709 158.404 61.6222 157.324 61.6191 156.197V117.515C61.622 116.388 62.0706 115.307 62.8668 114.51C63.6629 113.713 64.742 113.264 65.868 113.261H145.16C146.286 113.264 147.366 113.713 148.162 114.51C148.958 115.307 149.407 116.387 149.41 117.515V156.196C149.407 157.324 148.958 158.404 148.162 159.201C147.366 159.998 146.287 160.448 145.161 160.451Z" fill="white"/>
<path d="M145.161 160.451H65.8686C64.7425 160.448 63.6634 159.999 62.8672 159.202C62.0709 158.404 61.6222 157.324 61.6191 156.197V117.515C61.622 116.388 62.0706 115.307 62.8668 114.51C63.6629 113.713 64.742 113.264 65.868 113.261H145.16C146.286 113.264 147.366 113.713 148.162 114.51C148.958 115.307 149.407 116.387 149.41 117.515V156.196C149.407 157.324 148.958 158.404 148.162 159.201C147.366 159.998 146.287 160.448 145.161 160.451ZM65.8686 114.448C65.0566 114.45 64.2785 114.774 63.7044 115.349C63.1303 115.924 62.8067 116.703 62.8045 117.516V156.196C62.8068 157.009 63.1305 157.788 63.7047 158.363C64.279 158.938 65.0571 159.262 65.8692 159.264H145.16C145.972 159.262 146.75 158.938 147.324 158.363C147.899 157.788 148.222 157.009 148.225 156.196V117.515C148.222 116.702 147.898 115.923 147.324 115.348C146.75 114.774 145.972 114.45 145.16 114.448L65.8686 114.448Z" fill="#3F3D56"/>
<path d="M109.764 154.734C94.1255 154.734 77.8192 154.584 71.7351 154.487C70.9346 154.471 70.1723 154.142 69.6109 153.57C69.0495 152.999 68.7336 152.23 68.7305 151.428V119.409C68.7308 119.122 68.8446 118.847 69.0471 118.643C69.2496 118.44 69.5242 118.325 69.8109 118.324H141.214C141.501 118.325 141.776 118.439 141.978 118.641C142.181 118.844 142.296 119.119 142.297 119.406V141.131C142.284 144.677 140.883 148.077 138.394 150.601C135.906 153.125 132.529 154.572 128.987 154.631C123.317 154.705 116.603 154.734 109.764 154.734Z" fill="#005DFF"/>
<path d="M136.976 139.135H72.4576C71.9173 139.133 71.3907 138.965 70.9491 138.654C70.5076 138.342 70.1726 137.902 69.9896 137.393L62.6871 116.882C62.5464 116.486 62.5025 116.063 62.5592 115.647C62.6159 115.231 62.7715 114.834 63.0129 114.491C63.2544 114.147 63.5746 113.867 63.9467 113.673C64.3187 113.479 64.7319 113.378 65.1513 113.377L145.798 113.265C146.181 113.264 146.56 113.348 146.908 113.51C147.255 113.672 147.563 113.909 147.809 114.203C148.056 114.497 148.235 114.841 148.334 115.212C148.432 115.583 148.449 115.971 148.382 116.349L148.444 116.375L148.212 116.916L148.21 116.922L139.382 137.545C139.181 138.017 138.846 138.419 138.418 138.702C137.99 138.985 137.489 139.135 136.976 139.135ZM145.802 114.451L65.1536 114.564C64.9238 114.564 64.6975 114.62 64.4937 114.726C64.2898 114.832 64.1144 114.986 63.9821 115.174C63.8499 115.362 63.7646 115.579 63.7335 115.807C63.7025 116.035 63.7265 116.267 63.8036 116.484L71.1058 136.994C71.2062 137.272 71.3898 137.514 71.6318 137.684C71.8738 137.855 72.1624 137.947 72.4584 137.948H136.976C137.256 137.948 137.531 137.866 137.765 137.711C137.999 137.556 138.183 137.336 138.293 137.078L147.121 116.454L147.555 116.64L147.121 116.454C147.214 116.236 147.252 115.997 147.231 115.76C147.21 115.524 147.131 115.296 147 115.097C146.869 114.899 146.691 114.736 146.482 114.623C146.273 114.51 146.039 114.451 145.802 114.451Z" fill="#3F3D56"/>
<path d="M105.394 143.6C108.184 143.6 110.446 141.335 110.446 138.542C110.446 135.748 108.184 133.484 105.394 133.484C102.604 133.484 100.342 135.748 100.342 138.542C100.342 141.335 102.604 143.6 105.394 143.6Z" fill="white"/>
<path d="M296.236 99.6896C299.026 99.6896 301.288 97.4251 301.288 94.6317C301.288 91.8383 299.026 89.5737 296.236 89.5737C293.445 89.5737 291.184 91.8383 291.184 94.6317C291.184 97.4251 293.445 99.6896 296.236 99.6896Z" fill="white"/>
<path d="M487.311 167.997L473.816 154.658C473.159 154.003 472.379 153.485 471.522 153.133C470.665 152.78 469.746 152.601 468.819 152.605H468.772C467.838 152.607 466.914 152.795 466.054 153.158C465.193 153.521 464.413 154.05 463.758 154.717C460.74 157.774 459.024 161.884 458.97 166.182C458.916 170.48 460.528 174.631 463.468 177.764C463.61 177.918 463.758 178.066 463.906 178.215C464.727 179.031 465.633 179.758 466.609 180.38C469.277 182.106 472.388 183.019 475.564 183.009H475.665C477.845 183.002 480.002 182.562 482.011 181.714C484.02 180.867 485.842 179.629 487.37 178.072C488.694 176.727 489.432 174.911 489.421 173.022C489.41 171.133 488.651 169.326 487.311 167.997ZM486.529 177.236C484.023 179.763 480.724 181.348 477.187 181.724C473.651 182.1 470.092 181.244 467.112 179.301C466.26 178.736 465.464 178.09 464.736 177.372C461.828 174.497 460.18 170.583 460.154 166.491C460.129 162.399 461.728 158.465 464.6 155.554C465.145 154.997 465.796 154.554 466.515 154.252C467.233 153.949 468.005 153.793 468.784 153.791H468.819C469.591 153.789 470.356 153.938 471.07 154.231C471.783 154.525 472.433 154.956 472.98 155.5L486.475 168.845C487.592 169.951 488.225 171.456 488.235 173.029C488.245 174.602 487.632 176.115 486.529 177.236Z" fill="#3F3D56"/>
<path d="M443.033 124.217L429.538 110.872C428.21 109.553 426.413 108.815 424.542 108.819H424.5C423.565 108.823 422.64 109.012 421.779 109.376C420.917 109.739 420.136 110.27 419.48 110.938C416.986 113.474 415.368 116.744 414.865 120.268C414.362 123.792 414.999 127.384 416.683 130.519L416.689 130.525C417.384 131.807 418.247 132.991 419.255 134.044C419.368 134.174 419.498 134.305 419.629 134.435C422.728 137.515 426.92 139.239 431.287 139.23H431.393C433.574 139.221 435.731 138.779 437.74 137.931C439.749 137.082 441.57 135.844 443.099 134.287C443.755 133.622 444.274 132.833 444.625 131.967C444.977 131.101 445.155 130.174 445.149 129.239C445.143 128.304 444.953 127.379 444.59 126.517C444.227 125.656 443.698 124.874 443.033 124.217V124.217ZM442.251 133.456C440.832 134.901 439.142 136.05 437.277 136.838C435.413 137.625 433.411 138.035 431.387 138.043H431.287C428.247 138.042 425.277 137.141 422.748 135.454C420.219 133.767 418.244 131.369 417.073 128.561C415.902 125.753 415.586 122.662 416.165 119.675C416.744 116.688 418.193 113.939 420.328 111.774C421.433 110.656 422.936 110.022 424.507 110.012C426.078 110.002 427.589 110.617 428.708 111.721L442.204 125.06C443.32 126.168 443.952 127.674 443.961 129.248C443.97 130.822 443.355 132.336 442.251 133.456L442.251 133.456Z" fill="#3F3D56"/>
<path d="M488.175 172.19L473.297 157.478C472.321 156.516 471.004 155.98 469.635 155.989C468.265 155.997 466.955 156.549 465.991 157.524C464.785 158.743 463.832 160.188 463.185 161.777C462.537 163.365 462.209 165.066 462.219 166.781C462.229 168.497 462.576 170.194 463.241 171.775C463.906 173.356 464.876 174.79 466.095 175.995C467.314 177.201 468.759 178.154 470.346 178.8C471.933 179.446 473.632 179.773 475.346 179.761C477.059 179.75 478.754 179.4 480.332 178.733C481.91 178.065 483.342 177.092 484.545 175.87L488.175 172.19Z" fill="#005DFF"/>
<path d="M443.898 128.409L429.02 113.697C428.044 112.734 426.727 112.198 425.357 112.207C423.988 112.215 422.677 112.768 421.714 113.742C420.508 114.961 419.555 116.407 418.907 117.995C418.26 119.583 417.932 121.284 417.942 123C417.951 124.715 418.299 126.412 418.964 127.993C419.629 129.574 420.599 131.008 421.818 132.214C423.037 133.419 424.481 134.372 426.069 135.018C427.656 135.665 429.355 135.991 431.068 135.98C432.782 135.968 434.476 135.619 436.055 134.951C437.633 134.283 439.065 133.311 440.267 132.089L443.898 128.409Z" fill="#005DFF"/>
<path d="M471.824 181.353L471.469 182.291C469.798 181.656 468.178 181.019 466.609 180.38C438.824 169.029 425.56 155.743 416.688 130.525L416.682 130.519C416.261 129.332 415.852 128.118 415.455 126.876L416.392 126.573C416.705 127.768 417.162 128.919 417.755 130.003C418.241 131.385 418.74 132.732 419.254 134.044C427.593 155.328 439.891 167.492 463.468 177.764C464.653 178.28 465.868 178.792 467.113 179.3C468.558 180.243 470.151 180.937 471.824 181.353Z" fill="#3F3D56"/>
<path d="M429.29 138.15L428.457 138.994L459.239 169.433L460.073 168.588L429.29 138.15Z" fill="#3F3D56"/>
<path d="M168.681 112.928L168.697 93.4282L157.248 94.4525L161.288 106.751L146.621 129.011C145.704 129.217 144.866 129.686 144.211 130.36C143.555 131.035 143.11 131.885 142.929 132.809C142.748 133.732 142.839 134.689 143.191 135.561C143.544 136.433 144.142 137.184 144.913 137.722C145.685 138.26 146.596 138.562 147.535 138.59C148.475 138.619 149.402 138.373 150.205 137.883C151.007 137.393 151.65 136.679 152.054 135.83C152.459 134.98 152.607 134.031 152.483 133.099L168.681 112.928Z" fill="#FFB6B6"/>
</g>
<defs>
<clipPath id="clip0_956_77">
<rect width="530" height="266" fill="white" transform="translate(0.5)"/>
</clipPath>
</defs>
</svg>
