<svg width="18" height="20" viewBox="0 0 18 20" fill="none" xmlns="http://www.w3.org/2000/svg">
<path d="M17.1836 18.7316H16.3954V1.86107C16.3954 1.37067 15.9719 0.973145 15.4495 0.973145H2.20707C1.68466 0.973145 1.26118 1.37067 1.26118 1.86107V18.7316H0.472943C0.21176 18.7316 0 18.9304 0 19.1756V19.9155H17.6565V19.1756C17.6565 18.9304 17.4448 18.7316 17.1836 18.7316ZM5.04472 3.7849C5.04472 3.53972 5.25648 3.34094 5.51767 3.34094H7.09414C7.35533 3.34094 7.56709 3.53972 7.56709 3.7849V5.26477C7.56709 5.50995 7.35533 5.70873 7.09414 5.70873H5.51767C5.25648 5.70873 5.04472 5.50995 5.04472 5.26477V3.7849ZM5.04472 7.33659C5.04472 7.09141 5.25648 6.89263 5.51767 6.89263H7.09414C7.35533 6.89263 7.56709 7.09141 7.56709 7.33659V8.81646C7.56709 9.06164 7.35533 9.26042 7.09414 9.26042H5.51767C5.25648 9.26042 5.04472 9.06164 5.04472 8.81646V7.33659ZM7.09414 12.8121H5.51767C5.25648 12.8121 5.04472 12.6133 5.04472 12.3681V10.8883C5.04472 10.6431 5.25648 10.4443 5.51767 10.4443H7.09414C7.35533 10.4443 7.56709 10.6431 7.56709 10.8883V12.3681C7.56709 12.6133 7.35533 12.8121 7.09414 12.8121ZM10.0894 18.7316H7.56709V15.6239C7.56709 15.3787 7.77885 15.1799 8.04003 15.1799H9.6165C9.87769 15.1799 10.0894 15.3787 10.0894 15.6239V18.7316ZM12.6118 12.3681C12.6118 12.6133 12.4 12.8121 12.1389 12.8121H10.5624C10.3012 12.8121 10.0894 12.6133 10.0894 12.3681V10.8883C10.0894 10.6431 10.3012 10.4443 10.5624 10.4443H12.1389C12.4 10.4443 12.6118 10.6431 12.6118 10.8883V12.3681ZM12.6118 8.81646C12.6118 9.06164 12.4 9.26042 12.1389 9.26042H10.5624C10.3012 9.26042 10.0894 9.06164 10.0894 8.81646V7.33659C10.0894 7.09141 10.3012 6.89263 10.5624 6.89263H12.1389C12.4 6.89263 12.6118 7.09141 12.6118 7.33659V8.81646ZM12.6118 5.26477C12.6118 5.50995 12.4 5.70873 12.1389 5.70873H10.5624C10.3012 5.70873 10.0894 5.50995 10.0894 5.26477V3.7849C10.0894 3.53972 10.3012 3.34094 10.5624 3.34094H12.1389C12.4 3.34094 12.6118 3.53972 12.6118 3.7849V5.26477Z" fill="#0000DA"/>
</svg>
