<svg width="23" height="11" viewBox="0 0 23 11" fill="none" xmlns="http://www.w3.org/2000/svg">
<path d="M22.2841 5.09433C20.2284 2.15424 16.1588 0.165009 11.499 0.165009C6.83919 0.165009 2.76844 2.15563 0.713924 5.0946C0.627211 5.22034 0.582031 5.35926 0.582031 5.50015C0.582031 5.64104 0.627211 5.77995 0.713924 5.90569C2.76958 8.84578 6.83919 10.835 11.499 10.835C16.1588 10.835 20.2296 8.84439 22.2841 5.90541C22.3708 5.77968 22.416 5.64076 22.416 5.49987C22.416 5.35898 22.3708 5.22006 22.2841 5.09433ZM11.499 9.50126C10.4194 9.50126 9.36407 9.26659 8.46642 8.82693C7.56878 8.38726 6.86915 7.76235 6.45601 7.03122C6.04287 6.30009 5.93477 5.49557 6.14539 4.7194C6.35601 3.94324 6.87588 3.23028 7.63926 2.6707C8.40265 2.11111 9.37526 1.73003 10.4341 1.57564C11.4929 1.42125 12.5905 1.50049 13.5879 1.80334C14.5853 2.10618 15.4378 2.61903 16.0376 3.27703C16.6374 3.93503 16.9575 4.70864 16.9575 5.50001C16.9578 6.02553 16.8169 6.54595 16.5427 7.03152C16.2685 7.51709 15.8665 7.95829 15.3595 8.32989C14.8526 8.70149 14.2507 8.99621 13.5883 9.1972C12.9259 9.39819 12.2159 9.50151 11.499 9.50126ZM11.499 2.83251C11.1742 2.83584 10.8515 2.87126 10.5396 2.93782C10.7967 3.19392 10.9201 3.50908 10.8873 3.82614C10.8546 4.1432 10.668 4.44116 10.3612 4.666C10.0545 4.89083 9.64804 5.02765 9.21551 5.05164C8.78298 5.07562 8.35304 4.98519 8.00367 4.79673C7.80472 5.33401 7.84064 5.90349 8.10635 6.42502C8.37206 6.94655 8.8542 7.39387 9.4849 7.70402C10.1156 8.01417 10.8631 8.17153 11.6222 8.15395C12.3813 8.13637 13.1137 7.94474 13.7165 7.60603C14.3192 7.26732 14.7619 6.79858 14.9821 6.2658C15.2024 5.73302 15.1892 5.16301 14.9444 4.63601C14.6996 4.10901 14.2355 3.65155 13.6174 3.32803C12.9994 3.0045 12.2585 2.8312 11.499 2.83251Z" fill="#005DFF" fill-opacity="0.69"/>
</svg>
