<svg width="19" height="15" viewBox="0 0 19 15" fill="none" xmlns="http://www.w3.org/2000/svg">
<path d="M16.4489 3.73827C16.4605 3.90232 16.4605 4.06641 16.4605 4.23047C16.4605 9.23435 12.6798 15 5.7699 15C3.64108 15 1.66351 14.3789 0 13.3008C0.302465 13.3359 0.593258 13.3477 0.90736 13.3477C2.66389 13.3477 4.28089 12.75 5.57214 11.7305C3.92027 11.6953 2.53595 10.6055 2.059 9.10547C2.29168 9.1406 2.52432 9.16405 2.76863 9.16405C3.10597 9.16405 3.44335 9.11715 3.75742 9.03516C2.03576 8.68357 0.744472 7.16015 0.744472 5.32031V5.27345C1.24467 5.5547 1.82636 5.73048 2.44286 5.75389C1.43079 5.07419 0.767747 3.91405 0.767747 2.60154C0.767747 1.89842 0.953839 1.25389 1.27958 0.691389C3.12921 2.98826 5.90948 4.48824 9.02706 4.65233C8.9689 4.37108 8.93399 4.07814 8.93399 3.78516C8.93399 1.6992 10.6091 0 12.6914 0C13.7733 0 14.7504 0.45703 15.4368 1.19531C16.2859 1.03126 17.1002 0.714835 17.8215 0.281252C17.5423 1.16018 16.949 1.89846 16.1696 2.36718C16.9258 2.28519 17.6587 2.0742 18.3333 1.78126C17.8216 2.53123 17.1817 3.19917 16.4489 3.73827Z" fill="#005DFF" fill-opacity="0.69"/>
</svg>
