<svg width="17" height="10" viewBox="0 0 17 10" fill="none" xmlns="http://www.w3.org/2000/svg">
<path fill-rule="evenodd" clip-rule="evenodd" d="M0 4.83118C0 4.69663 0.0625704 4.56759 0.173946 4.47245C0.285323 4.37731 0.436381 4.32386 0.593891 4.32386H14.6014L10.8634 1.13179C10.7519 1.03653 10.6893 0.90733 10.6893 0.77261C10.6893 0.63789 10.7519 0.508688 10.8634 0.413427C10.975 0.318166 11.1262 0.264648 11.2839 0.264648C11.4416 0.264648 11.5929 0.318166 11.7044 0.413427L16.4555 4.47199C16.5108 4.51912 16.5547 4.5751 16.5846 4.63674C16.6146 4.69837 16.63 4.76445 16.63 4.83118C16.63 4.89791 16.6146 4.96398 16.5846 5.02562C16.5547 5.08725 16.5108 5.14323 16.4555 5.19036L11.7044 9.24893C11.5929 9.34419 11.4416 9.39771 11.2839 9.39771C11.1262 9.39771 10.975 9.34419 10.8634 9.24893C10.7519 9.15367 10.6893 9.02446 10.6893 8.88974C10.6893 8.75502 10.7519 8.62582 10.8634 8.53056L14.6014 5.3385H0.593891C0.436381 5.3385 0.285323 5.28505 0.173946 5.18991C0.0625704 5.09477 0 4.96573 0 4.83118Z" fill="white"/>
</svg>
