<svg width="17" height="10" viewBox="0 0 17 10" fill="none" xmlns="http://www.w3.org/2000/svg">
<path fill-rule="evenodd" clip-rule="evenodd" d="M0 4.98938C0 4.85483 0.0625704 4.72579 0.173946 4.63065C0.285323 4.53551 0.436381 4.48206 0.593891 4.48206H14.6014L10.8634 1.29C10.7519 1.19474 10.6893 1.06553 10.6893 0.930813C10.6893 0.796093 10.7519 0.666891 10.8634 0.57163C10.975 0.476369 11.1262 0.422852 11.2839 0.422852C11.4416 0.422852 11.5929 0.476369 11.7044 0.57163L16.4555 4.6302C16.5108 4.67732 16.5547 4.73331 16.5846 4.79494C16.6146 4.85658 16.63 4.92265 16.63 4.98938C16.63 5.05611 16.6146 5.12218 16.5846 5.18382C16.5547 5.24545 16.5108 5.30144 16.4555 5.34856L11.7044 9.40713C11.5929 9.50239 11.4416 9.55591 11.2839 9.55591C11.1262 9.55591 10.975 9.50239 10.8634 9.40713C10.7519 9.31187 10.6893 9.18267 10.6893 9.04795C10.6893 8.91323 10.7519 8.78403 10.8634 8.68876L14.6014 5.4967H0.593891C0.436381 5.4967 0.285323 5.44325 0.173946 5.34811C0.0625704 5.25297 0 5.12393 0 4.98938Z" fill="white"/>
</svg>
