<svg width="18" height="20" viewBox="0 0 18 20" fill="none" xmlns="http://www.w3.org/2000/svg">
<path d="M17.187 18.6276H16.3986V1.75706C16.3986 1.26667 15.975 0.869141 15.4525 0.869141H2.2075C1.68499 0.869141 1.26143 1.26667 1.26143 1.75706V18.6276H0.473036C0.211802 18.6276 0 18.8264 0 19.0716V19.8115H17.66V19.0716C17.66 18.8264 17.4482 18.6276 17.187 18.6276ZM5.04571 3.68089C5.04571 3.43572 5.25752 3.23693 5.51875 3.23693H7.09554C7.35677 3.23693 7.56857 3.43572 7.56857 3.68089V5.16077C7.56857 5.40594 7.35677 5.60473 7.09554 5.60473H5.51875C5.25752 5.60473 5.04571 5.40594 5.04571 5.16077V3.68089ZM5.04571 7.23258C5.04571 6.98741 5.25752 6.78862 5.51875 6.78862H7.09554C7.35677 6.78862 7.56857 6.98741 7.56857 7.23258V8.71246C7.56857 8.95763 7.35677 9.15642 7.09554 9.15642H5.51875C5.25752 9.15642 5.04571 8.95763 5.04571 8.71246V7.23258ZM7.09554 12.7081H5.51875C5.25752 12.7081 5.04571 12.5093 5.04571 12.2641V10.7843C5.04571 10.5391 5.25752 10.3403 5.51875 10.3403H7.09554C7.35677 10.3403 7.56857 10.5391 7.56857 10.7843V12.2641C7.56857 12.5093 7.35677 12.7081 7.09554 12.7081ZM10.0914 18.6276H7.56857V15.5199C7.56857 15.2747 7.78037 15.0759 8.04161 15.0759H9.61839C9.87963 15.0759 10.0914 15.2747 10.0914 15.5199V18.6276ZM12.6143 12.2641C12.6143 12.5093 12.4025 12.7081 12.1413 12.7081H10.5645C10.3032 12.7081 10.0914 12.5093 10.0914 12.2641V10.7843C10.0914 10.5391 10.3032 10.3403 10.5645 10.3403H12.1413C12.4025 10.3403 12.6143 10.5391 12.6143 10.7843V12.2641ZM12.6143 8.71246C12.6143 8.95763 12.4025 9.15642 12.1413 9.15642H10.5645C10.3032 9.15642 10.0914 8.95763 10.0914 8.71246V7.23258C10.0914 6.98741 10.3032 6.78862 10.5645 6.78862H12.1413C12.4025 6.78862 12.6143 6.98741 12.6143 7.23258V8.71246ZM12.6143 5.16077C12.6143 5.40594 12.4025 5.60473 12.1413 5.60473H10.5645C10.3032 5.60473 10.0914 5.40594 10.0914 5.16077V3.68089C10.0914 3.43572 10.3032 3.23693 10.5645 3.23693H12.1413C12.4025 3.23693 12.6143 3.43572 12.6143 3.68089V5.16077Z" fill="#0000DA"/>
</svg>
