<svg width="23" height="11" viewBox="0 0 23 11" fill="none" xmlns="http://www.w3.org/2000/svg">
<path d="M22.2841 5.09436C20.2284 2.15427 16.1588 0.165039 11.499 0.165039C6.83919 0.165039 2.76844 2.15566 0.713924 5.09463C0.627211 5.22037 0.582031 5.35929 0.582031 5.50018C0.582031 5.64107 0.627211 5.77998 0.713924 5.90572C2.76958 8.84581 6.83919 10.835 11.499 10.835C16.1588 10.835 20.2296 8.84442 22.2841 5.90544C22.3708 5.77971 22.416 5.64079 22.416 5.4999C22.416 5.35901 22.3708 5.22009 22.2841 5.09436ZM11.499 9.50129C10.4194 9.50129 9.36407 9.26662 8.46642 8.82696C7.56878 8.38729 6.86915 7.76238 6.45601 7.03125C6.04287 6.30012 5.93477 5.4956 6.14539 4.71943C6.35601 3.94327 6.87588 3.23031 7.63926 2.67073C8.40265 2.11114 9.37526 1.73006 10.4341 1.57567C11.4929 1.42128 12.5905 1.50052 13.5879 1.80337C14.5853 2.10621 15.4378 2.61906 16.0376 3.27706C16.6374 3.93507 16.9575 4.70867 16.9575 5.50004C16.9578 6.02556 16.8169 6.54598 16.5427 7.03155C16.2685 7.51712 15.8665 7.95832 15.3595 8.32992C14.8526 8.70152 14.2507 8.99624 13.5883 9.19723C12.9259 9.39822 12.2159 9.50154 11.499 9.50129ZM11.499 2.83254C11.1742 2.83587 10.8515 2.87129 10.5396 2.93785C10.7967 3.19395 10.9201 3.50911 10.8873 3.82617C10.8546 4.14323 10.668 4.44119 10.3612 4.66603C10.0545 4.89086 9.64804 5.02768 9.21551 5.05167C8.78298 5.07565 8.35304 4.98522 8.00367 4.79676C7.80472 5.33404 7.84064 5.90352 8.10635 6.42505C8.37206 6.94658 8.8542 7.3939 9.4849 7.70405C10.1156 8.0142 10.8631 8.17156 11.6222 8.15398C12.3813 8.1364 13.1137 7.94477 13.7165 7.60606C14.3192 7.26735 14.7619 6.79861 14.9821 6.26583C15.2024 5.73305 15.1892 5.16304 14.9444 4.63604C14.6996 4.10904 14.2355 3.65158 13.6174 3.32806C12.9994 3.00453 12.2585 2.83123 11.499 2.83254Z" fill="#005DFF" fill-opacity="0.69"/>
</svg>
